<svg width="148" height="130" viewBox="0 0 148 130" fill="none" xmlns="http://www.w3.org/2000/svg">
<path d="M86.0673 73.8546C84.7139 74.0986 83.4018 74.6113 82.2126 75.3605C79.1132 77.2607 77.3493 80.1082 78.273 81.72C79.1967 83.3319 82.458 83.0974 85.5573 81.1972C86.7634 80.4775 87.828 79.5335 88.6856 78.4235C89.083 77.8864 89.1409 77.1949 88.8335 76.6601L87.6336 74.5661C87.3282 74.0298 86.7136 73.751 86.0673 73.8546Z" fill="#D5D6DB"/>
<path d="M78.2098 46.8595C77.2284 47.0366 76.2769 47.4086 75.4145 47.9519C73.1677 49.3294 71.8879 51.3941 72.5571 52.5619C73.2263 53.7297 75.592 53.5595 77.8386 52.1821C78.7131 51.66 79.485 50.9751 80.1069 50.1701C80.3948 49.7808 80.4366 49.2798 80.2138 48.8921L79.3449 47.3758C79.1238 46.9871 78.6784 46.7845 78.2098 46.8595Z" fill="#D5D6DB"/>
<path d="M65.3853 47.4327C65.1653 47.3965 64.9326 47.4446 64.7326 47.5674L59.4582 50.798C59.017 51.0673 58.8505 51.6207 59.0867 52.0342C59.1407 52.129 59.2136 52.2112 59.3013 52.2763L72.7066 62.282L90.2942 51.5095L65.3853 47.4327Z" fill="#029BC5"/>
<path d="M121.877 47.7634L73.5357 77.7171L44.7789 88.3663L30.0445 90.696L28.3514 87.7007L108.952 38.8138C111.354 37.3501 114.047 36.5147 116.76 36.3925C117.948 36.3458 119.124 36.4482 120.262 36.697C121.27 36.9093 122.23 37.2678 123.113 37.7618C124.099 38.3208 125.955 38.4754 126.578 39.5198C126.58 39.5183 128.101 44.2438 121.877 47.7634Z" fill="#E1E6E9"/>
<path d="M73.7455 72.6171L53.3842 106.583C53.1311 107.062 53.3002 107.621 53.7615 107.832C54.0446 107.962 54.387 107.934 54.6712 107.758L59.9739 104.484C60.9938 103.854 61.891 103.033 62.6101 102.073L102.496 54.0463L73.7455 72.6171Z" fill="#029BC5"/>
<path d="M20.8798 71.6704C20.5277 71.5308 20.1134 71.573 19.7677 71.7835L15.4268 74.4263C14.8353 74.7861 14.6131 75.5242 14.9303 76.075C14.9907 76.1797 15.0682 76.2731 15.1604 76.3515L27.7332 87.0718L40.5243 79.4491L20.8798 71.6704Z" fill="#029BC5"/>
<path d="M31.5967 88.5232L25.1016 97.9748C25.0063 98.1105 25.0334 98.2885 25.162 98.372C25.2548 98.4322 25.3796 98.4286 25.4796 98.3629L29.5789 95.8297C29.6108 95.81 29.6394 95.7848 29.663 95.7555L39.1956 83.8323L31.5967 88.5232Z" fill="#029BC5"/>
<path d="M119.666 36.8249C118.504 36.5741 117.301 36.4719 116.086 36.5202C114.94 38.1679 114.226 40.048 114.015 41.9731C114.005 42.3614 114.316 42.6572 114.709 42.6336C114.832 42.6261 114.952 42.5879 115.061 42.5224L122.581 37.8998C121.679 37.4006 120.697 37.0388 119.666 36.8249Z" fill="#029BC5"/>
<path d="M103.118 45.4293L107.957 42.5343L112.711 50.6453L107.872 53.5403L103.118 45.4293Z" fill="#D5D6DB"/>
<path d="M99.9658 48.7315C99.3818 49.0818 99.1624 49.8034 99.4763 50.3433L99.9848 51.2178C100.318 51.7453 101.053 51.8743 101.627 51.5058C102.172 51.1549 102.379 50.4749 102.099 49.9497L101.591 49.0752C101.277 48.5358 100.55 48.3818 99.9658 48.7315Z" fill="#3A556A"/>
<path d="M95.5014 51.504C94.9174 51.8542 94.698 52.5759 95.0119 53.1157L95.5204 53.9903C95.8538 54.5178 96.5888 54.6468 97.1622 54.2783C97.708 53.9273 97.9147 53.2474 97.6349 52.7222L97.1263 51.8476C96.8125 51.3084 96.0852 51.1545 95.5014 51.504Z" fill="#3A556A"/>
<path d="M91.0356 54.2773C90.4522 54.6281 90.2337 55.3489 90.5473 55.8882L91.0558 56.7628C91.3892 57.2903 92.1242 57.4193 92.6976 57.0508C93.2434 56.6998 93.4501 56.0199 93.1703 55.4947L92.6617 54.6202C92.3478 54.0804 91.6199 53.9269 91.0356 54.2773Z" fill="#3A556A"/>
<path d="M86.5712 57.0496C85.9879 57.4004 85.7693 58.1213 86.0829 58.6606L86.5915 59.5352C86.9249 60.0627 87.6598 60.1917 88.2333 59.8232C88.779 59.4722 88.9857 58.7923 88.7059 58.2671L88.1974 57.3925C87.8832 56.8529 87.1553 56.6994 86.5712 57.0496Z" fill="#3A556A"/>
<path d="M82.1071 59.8221C81.5235 60.173 81.3048 60.8939 81.6186 61.4333L82.1273 62.308C82.441 62.8472 83.1685 63.0006 83.7523 62.6506C84.3361 62.3005 84.5551 61.5797 84.2414 61.0405L83.7327 60.1658C83.4198 59.6262 82.6925 59.4721 82.1083 59.8214C82.1078 59.8217 82.1076 59.8219 82.1071 59.8221Z" fill="#3A556A"/>
<path d="M77.6427 62.5946C77.0591 62.9454 76.8405 63.6664 77.1542 64.2058L77.663 65.0804C77.9766 65.6196 78.7041 65.773 79.2879 65.423C79.8717 65.073 80.0907 64.3522 79.7771 63.813L79.2683 62.9383C78.9555 62.3987 78.2282 62.2445 77.644 62.5939C77.6435 62.5942 77.643 62.5945 77.6427 62.5946Z" fill="#3A556A"/>
<path d="M73.1781 65.3671C72.5945 65.718 72.3759 66.4389 72.6896 66.9783L73.1984 67.8529C73.5127 68.3917 74.2406 68.5439 74.8237 68.1934C75.4059 67.8434 75.6244 67.1241 75.3122 66.5856L74.8035 65.711C74.4899 65.1714 73.7624 65.0174 73.1781 65.3671Z" fill="#3A556A"/>
<path d="M68.7135 68.1397C68.1299 68.4905 67.9113 69.2114 68.225 69.7509L68.7338 70.6255C69.0481 71.1643 69.776 71.3165 70.3591 70.966C70.9413 70.616 71.1598 69.8967 70.8476 69.3582L70.3389 68.4835C70.0253 67.9439 69.2978 67.79 68.7135 68.1397Z" fill="#3A556A"/>
<path d="M64.2493 70.9121C63.6657 71.2629 63.447 71.9838 63.7608 72.5232L64.2695 73.3979C64.5839 73.9366 65.3117 74.0889 65.8949 73.7383C66.477 73.3884 66.6956 72.6691 66.3834 72.1306L65.8746 71.2559C65.5609 70.7165 64.8334 70.5625 64.2493 70.9121Z" fill="#3A556A"/>
<path d="M59.7834 73.6853C59.1996 74.0353 58.9806 74.7562 59.2942 75.2954L59.2948 75.2965L59.8036 76.1712C60.118 76.7099 60.8458 76.8622 61.4289 76.5116C62.0111 76.1617 62.2296 75.4423 61.9174 74.9038L61.4087 74.0292C61.0952 73.4896 60.3677 73.3356 59.7834 73.6853Z" fill="#3A556A"/>
<path d="M55.3202 76.457C54.7364 76.807 54.5174 77.5278 54.8311 78.067L54.8317 78.0681L55.3405 78.9428C55.6548 79.4815 56.3827 79.6338 56.9658 79.2832C57.548 78.9333 57.7666 78.214 57.4543 77.6755L56.9456 76.8008C56.6318 76.2614 55.9043 76.1074 55.3202 76.457Z" fill="#3A556A"/>
</svg>
