<svg width="14" height="17" viewBox="0 0 14 17" fill="none" xmlns="http://www.w3.org/2000/svg">
<path d="M4.78926 16.712C2.40798 16.6983 0.438232 11.8373 0.438232 9.36169C0.438232 5.31782 3.47183 4.43251 4.64095 4.43251C5.16783 4.43251 5.73042 4.63941 6.22664 4.82251C6.57364 4.95022 6.93251 5.08207 7.13211 5.08207C7.25158 5.08207 7.53311 4.96991 7.78167 4.87151C8.31176 4.66047 8.97139 4.39819 9.73951 4.39819C9.74089 4.39819 9.74273 4.39819 9.74408 4.39819C10.3176 4.39819 12.0567 4.52407 13.1022 6.09419L13.3471 6.46222L12.9947 6.72819C12.4911 7.10813 11.5724 7.80119 11.5724 9.17404C11.5724 10.8 12.6129 11.4253 13.1128 11.7261C13.3334 11.8588 13.5618 11.9957 13.5618 12.2951C13.5618 12.4905 12.0018 16.6878 9.7363 16.6878C9.18195 16.6878 8.79011 16.5211 8.44448 16.3742C8.09476 16.2254 7.79308 16.0973 7.29458 16.0973C7.04189 16.0973 6.72236 16.2167 6.38408 16.3435C5.9218 16.5161 5.39855 16.712 4.80483 16.712H4.78926Z" fill="white"/>
<path d="M9.97954 0.712158C10.0385 2.83953 8.51713 4.31541 6.9975 4.22285C6.74709 2.52513 8.51694 0.712158 9.97954 0.712158Z" fill="white"/>
</svg>
