<svg width="20" height="21" viewBox="0 0 20 21" fill="none" xmlns="http://www.w3.org/2000/svg">
<g clip-path="url(#clip0_1_521)">
<path d="M11.5073 10.714L1.46381 20.3852C0.993483 20.0638 0.714243 19.5291 0.719181 18.9595V2.46842C0.714243 1.89879 0.993483 1.36415 1.46381 1.04272L11.5073 10.714Z" fill="#2196F3"/>
<path d="M15.0217 7.3358L11.5074 10.7139L1.46387 1.04269C1.50171 1.01336 1.54113 0.986076 1.58191 0.960962C2.11272 0.63924 2.77574 0.628854 3.31639 0.933719L15.0217 7.3358Z" fill="#4CAF50"/>
<path d="M19.2807 10.7138C19.2873 11.3569 18.9379 11.9509 18.3727 12.2576L15.0218 14.0919L11.5074 10.7138L15.0218 7.33569L18.3727 9.17004C18.9379 9.47677 19.2873 10.0708 19.2807 10.7138Z" fill="#F0BB1F"/>
<path d="M15.0217 14.092L3.31639 20.4941C2.77455 20.7942 2.11404 20.7838 1.58191 20.4668C1.54113 20.4417 1.50171 20.4144 1.46387 20.3851L11.5074 10.7139L15.0217 14.092Z" fill="#F15A2B"/>
</g>
<defs>
<clipPath id="clip0_1_521">
<rect width="20" height="20" fill="white" transform="translate(0 0.712158)"/>
</clipPath>
</defs>
</svg>
