<svg width="16" height="12" viewBox="0 0 16 12" fill="none" xmlns="http://www.w3.org/2000/svg">
<path d="M16 2.15543C15.405 2.37187 14.771 2.51534 14.11 2.585C14.79 2.24831 15.309 1.71922 15.553 1.0815C14.919 1.39497 14.219 1.61639 13.473 1.73995C12.871 1.20838 12.013 0.87915 11.077 0.87915C9.261 0.87915 7.799 2.10152 7.799 3.60005C7.799 3.81566 7.821 4.02299 7.875 4.22036C5.148 4.11006 2.735 3.02618 1.114 1.37507C0.831 1.78225 0.665 2.24831 0.665 2.75003C0.665 3.6921 1.25 4.52719 2.122 5.01067C1.595 5.00238 1.078 4.8755 0.64 4.67564C0.64 4.68393 0.64 4.69471 0.64 4.70549C0.64 6.02738 1.777 7.12536 3.268 7.37829C3.001 7.43883 2.71 7.46785 2.408 7.46785C2.198 7.46785 1.986 7.4579 1.787 7.42141C2.212 8.49866 3.418 9.29063 4.852 9.31634C3.736 10.0403 2.319 10.4765 0.785 10.4765C0.516 10.4765 0.258 10.4666 0 10.4392C1.453 11.2162 3.175 11.6599 5.032 11.6599C11.068 11.6599 14.368 7.51347 14.368 3.91933C14.368 3.79908 14.363 3.68298 14.356 3.56771C15.007 3.18457 15.554 2.70607 16 2.15543Z" fill="#080809"/>
</svg>
